<svg width="18" height="18" viewBox="0 0 18 18" fill="none" xmlns="http://www.w3.org/2000/svg">
<path fill-rule="evenodd" clip-rule="evenodd" d="M9.84695 0.672116C9.60315 0.800775 9.45663 0.906427 9.29655 1.06907C9.17658 1.19099 8.11506 2.32758 6.93761 3.59482C4.15579 6.58886 3.63041 7.15371 2.88827 7.94881C1.77147 9.14531 1.75452 9.16557 1.35925 9.77881C0.725791 10.7616 0.461091 11.6746 0.504582 12.7268C0.55392 13.921 1.00129 15.0618 1.75266 15.9097C2.40954 16.651 3.58263 17.2853 4.60143 17.4501C5.62292 17.6153 6.64956 17.3684 7.56177 16.738C8.03558 16.4106 8.16958 16.2827 9.25675 15.12C9.79917 14.5399 10.4085 13.8899 10.6109 13.6755C10.8132 13.4612 11.1353 13.1183 11.3265 12.9135C11.5178 12.7087 11.8401 12.3657 12.0427 12.1511C12.3697 11.8049 14.0471 10.0127 15.817 8.11847C16.7188 7.15337 16.9828 6.80562 17.2398 6.24408C17.4219 5.84628 17.4719 5.62081 17.4948 5.0955C17.5305 4.27255 17.3825 3.49327 17.0696 2.8578C16.7757 2.26082 16.4332 1.89375 15.9144 1.61976C15.2604 1.27434 14.744 1.13027 14.1495 1.12735C13.3907 1.12366 12.6643 1.41571 11.8994 2.0319C11.7658 2.13948 7.45429 6.69207 5.63767 8.64368C5.33725 8.9664 5.17306 9.24828 5.00112 9.73636C4.80872 10.2825 4.76021 10.81 4.86477 11.2193C4.92065 11.4381 5.09638 11.8111 5.25293 12.0433C5.43832 12.3182 6.11119 12.7462 6.51782 12.8478C6.84761 12.9303 7.21072 12.9012 7.55446 12.7649C8.12266 12.5396 8.13748 12.5256 10.4996 9.97372C11.6939 8.68357 12.9616 7.31521 13.3167 6.93292C13.6718 6.55064 14.0185 6.14924 14.0872 6.04091C14.3985 5.54969 14.406 5.08052 14.106 4.85251C13.983 4.75903 13.7019 4.76316 13.4476 4.86224C13.0423 5.02014 12.8793 5.16771 11.7407 6.4073C11.1416 7.05958 10.5371 7.71525 10.3972 7.86434C10.2573 8.01343 9.56487 8.76262 8.85849 9.52919C7.52243 10.979 7.378 11.1246 7.17719 11.2232C6.9415 11.3391 6.62357 11.2827 6.45134 11.0946C6.27325 10.9001 6.21242 10.5172 6.32216 10.2814C6.35313 10.2148 6.6655 9.85695 7.01629 9.48612C7.36711 9.11532 8.57359 7.83635 9.69741 6.64392C10.8212 5.45149 11.9859 4.21667 12.2856 3.89985C12.9744 3.17167 13.2759 2.94861 13.8156 2.76794C14.1817 2.64538 14.7391 2.69024 15.0891 2.87047C15.5929 3.12986 15.9298 3.60594 16.0605 4.24317C16.1478 4.6691 16.0656 5.14114 15.8133 5.66185C15.6166 6.06805 15.6766 5.99981 13.0549 8.79616C12.6967 9.17821 12.09 9.82605 11.7067 10.2358C7.88667 14.3195 7.00117 15.2465 6.70458 15.4723C6.41908 15.6896 6.05138 15.8655 5.74256 15.9323C5.405 16.0055 4.73247 15.9805 4.3667 15.8812C3.79713 15.7267 3.22899 15.347 2.79956 14.8337C2.36701 14.3167 2.17544 13.9317 2.03457 13.2966C1.95736 12.9485 1.95078 12.8616 1.9633 12.354C1.9763 11.8288 1.98374 11.7754 2.0863 11.473C2.14634 11.296 2.28591 10.9717 2.39649 10.7524L2.59746 10.3536L4.31181 8.4994C5.25469 7.47961 7.06616 5.52133 8.33726 4.14772C10.1492 2.1897 10.6677 1.61 10.7377 1.46413C10.9109 1.10353 10.8245 0.736225 10.5264 0.565346C10.3383 0.457525 10.2177 0.4765 9.84695 0.672116Z" fill="#848CAA"/>
</svg>
